<svg width="107" height="106" viewBox="0 0 107 106" fill="none" xmlns="http://www.w3.org/2000/svg">
<path d="M98.4 78.4617C97.1938 78.4617 96.0837 78.7012 95.066 79.1801C94.0484 79.659 93.2265 80.381 92.6038 81.3389C91.6894 82.84 90.8995 84.0194 90.2377 84.8772C89.5723 85.7314 88.8037 86.4498 87.932 87.036C85.7722 88.4549 82.883 89.1625 79.2715 89.1625C75.1583 89.1625 71.9169 87.9938 69.5507 85.6599C66.7256 82.9472 65.313 79.1694 65.313 74.3301V59.5656H51.2513C51.1943 59.5656 51.1338 59.5656 51.0769 59.562C50.2016 59.5513 49.3797 59.4333 48.6147 59.2153C47.4868 58.8937 46.4763 58.3468 45.5867 57.5784C44.8787 56.9672 44.32 56.2453 43.9073 55.4125C43.4945 54.5833 43.2882 53.7077 43.2882 52.7891C43.2882 51.8706 43.4945 50.9807 43.9073 50.1157C44.32 49.2472 44.8787 48.4931 45.5867 47.8462C46.7147 46.874 48.0347 46.2557 49.5469 45.9984C50.0913 45.9055 50.6571 45.859 51.2513 45.859H67.2273C67.8499 44.7367 68.6256 43.736 69.5507 42.846C71.9169 40.5086 75.1583 39.3399 79.2715 39.3399C82.9257 39.3399 85.79 40.0511 87.868 41.47C88.7433 42.0562 89.4976 42.7638 90.1452 43.5966C90.7856 44.4329 91.6075 45.6231 92.6038 47.1635C93.81 49.1257 95.7207 50.1086 98.336 50.1086C100.745 50.1086 102.801 49.2937 104.506 47.6675C106.167 46.0806 107 44.1828 107 41.9704C107 40.0082 106.416 38.1747 105.253 36.4627C102.303 32.206 99.044 28.9929 95.4717 26.8235C90.7358 23.9428 85.3346 22.506 79.2715 22.506C75.0729 22.506 71.1163 23.2672 67.4016 24.7898C66.48 25.1687 65.587 25.5833 64.7223 26.0407L70.6608 11.4549C71.1163 10.204 71.344 9.09603 71.344 8.13818C71.344 7.18032 71.1483 6.15456 70.7534 5.19671C70.3584 4.23528 69.8069 3.35963 69.1024 2.56619C67.4407 0.897094 65.466 0.0643334 63.1817 0.0643334C61.52 0.0643334 60.0043 0.511093 58.6344 1.40819C57.2645 2.30528 56.2433 3.54906 55.5815 5.13238L35.8268 53.6398L16.0756 5.13238C15.3676 3.54906 14.3108 2.29456 12.8982 1.37602C11.4856 0.461056 9.96987 0 8.35092 0C6.06305 0 4.0705 0.857779 2.36615 2.56619C1.61895 3.35963 1.03897 4.25673 0.622672 5.25747C0.206371 6.25821 0 7.26253 0 8.26327C0 9.26401 0.22772 10.2862 0.68316 11.4549L28.038 78.4868C28.7461 80.0736 29.7744 81.3281 31.1229 82.2431C32.4715 83.1616 33.9374 83.6191 35.5172 83.6191H35.8268C37.3639 83.5798 38.7871 83.1617 40.0965 82.3682C41.4059 81.5783 42.4129 80.4489 43.1174 78.9907C43.4519 78.5296 43.6369 78.1115 43.6796 77.7362L48.6147 65.6129V74.205C48.6147 78.837 49.401 83.1116 50.9808 87.036C52.5607 90.9567 54.7809 94.3592 57.6488 97.2364C60.4312 100.035 63.6834 102.194 67.4016 103.716C71.1163 105.239 75.0729 106 79.2715 106C82.7193 106 85.7509 105.603 88.3661 104.81C93.2692 103.434 97.4856 100.928 101.019 97.3007C102.887 95.3385 104.349 93.4907 105.41 91.7609C106.47 90.031 107 88.2869 107 86.5356C107 84.3661 106.189 82.4647 104.57 80.8385C102.865 79.2552 100.809 78.4617 98.4 78.4617Z" fill="#E0E0E0"/>
</svg>
