<svg width="21" height="28" viewBox="0 0 21 28" fill="none" xmlns="http://www.w3.org/2000/svg">
<path d="M21 13.249V13.8767C20.6005 15.1815 19.0679 15.1856 17.9528 15.5549C13.788 16.9335 13.26 19.5103 12.4077 23.4788C12.2423 24.2502 12.0966 26.0178 11.6594 26.5553C10.9136 27.4711 9.62492 27.2282 9.11569 26.2221C8.69324 24.3084 8.43207 22.3513 7.83278 20.4819C6.92402 17.6483 5.88508 16.4896 3.05236 15.5549C1.89799 15.1741 -0.0243281 15.1413 0.000233077 13.5304C0.0247942 11.9549 2.08384 11.9056 3.24066 11.5093C6.81758 10.2841 7.53231 8.19068 8.34774 4.71373C8.53932 3.89639 8.9061 1.15224 9.25323 0.664798C9.84925 -0.172232 11.0028 -0.23542 11.6594 0.569606C12.0974 1.10711 12.2423 2.87472 12.4077 3.6461C13.2559 7.59409 13.7946 10.211 17.9528 11.57C19.0556 11.9302 20.5964 11.9352 21 13.2481V13.249ZM10.5648 8.03969C10.4019 8.01097 10.4682 8.06349 10.4346 8.12914C10.248 8.49513 10.1284 9.00391 9.95158 9.40027C9.22867 11.0152 8.35839 12.1149 6.87407 13.0873C6.73899 13.1759 6.08157 13.4886 6.06683 13.5329C6.02917 13.6445 6.1094 13.6174 6.14788 13.6412C8.0743 14.8295 8.97078 15.5516 9.93275 17.6836C10.0285 17.8953 10.4019 19.0639 10.4731 19.0868C10.6008 19.1287 10.5574 19.0146 10.582 18.9482C11.4703 16.625 12.1801 15.2217 14.3587 13.8891C14.4438 13.8374 14.9326 13.6256 14.9408 13.5936C14.9711 13.4722 14.9039 13.5124 14.8597 13.4853C14.4299 13.2203 13.9886 13.0233 13.5711 12.7106C12.0458 11.5683 11.065 9.86803 10.5656 8.04051L10.5648 8.03969Z" fill="#082227"/>
</svg>
